<?xml version="1.0" encoding="UTF-8"?>
<svg xmlns="http://www.w3.org/2000/svg" viewBox="0 0 87.96 87.96">
  <title>logo-square</title>
  <g id="Layer_2" data-name="Layer 2">
    <g id="Layer_1-2" data-name="Layer 1">
      <path d="M0,0V88H88V0ZM66.8,57.06c0,9.62-8.22,15.71-20.64,15.71h-25V68.82h0V51.75h4V68.82H46.33c9.87,0,16.12-4.52,16.12-11.76v-.17c0-7.07-6.17-11.19-17.52-11.19H21.16v-4H44.43c8.64,0,14.8-4.19,14.8-11.84v-.16c0-6.33-5.18-10.61-14.39-10.61H25.14v17h-4V19h0V15.19H44.93c6.5,0,11.76,1.89,15,5.1a12.39,12.39,0,0,1,3.7,9v.17c0,7.81-5.1,11.76-9.79,13.65,6.91,1.81,13,5.76,13,13.73Z" style="fill:#000902"></path>
    </g>
  </g>
</svg>
